<svg width="38" height="28" viewBox="0 0 38 28" fill="none" xmlns="http://www.w3.org/2000/svg">
<path d="M28 9.2875C27.9396 8.55904 27.7884 7.84098 27.55 7.15C27.3235 6.52792 26.9798 5.95506 26.5375 5.4625C26.0449 5.02017 25.4721 4.67646 24.85 4.45L22.7125 4H15.2875L13.15 4.45C12.5279 4.67646 11.9551 5.02017 11.4625 5.4625C11.0202 5.95506 10.6765 6.52792 10.45 7.15C10.2116 7.84098 10.0604 8.55904 10 9.2875V16.7125C10.0604 17.441 10.2116 18.159 10.45 18.85C10.6765 19.4721 11.0202 20.0449 11.4625 20.5375C11.9551 20.9798 12.5279 21.3235 13.15 21.55L15.2875 22H22.7125L24.85 21.55C25.4721 21.3235 26.0449 20.9798 26.5375 20.5375C26.9798 20.0449 27.3235 19.4721 27.55 18.85C27.7884 18.159 27.9396 17.441 28 16.7125V9.2875ZM26.3125 16.6C26.3156 17.1796 26.2007 17.7537 25.975 18.2875C25.8838 18.6972 25.6431 19.0582 25.3 19.3C25.0582 19.6431 24.6972 19.8838 24.2875 19.975C23.7537 20.2007 23.1796 20.3156 22.6 20.3125H15.4C14.8204 20.3156 14.2463 20.2007 13.7125 19.975C13.3028 19.8838 12.9418 19.6431 12.7 19.3C12.3569 19.0582 12.1162 18.6972 12.025 18.2875C11.7993 17.7537 11.6844 17.1796 11.6875 16.6C11.563 15.4043 11.5254 14.2011 11.575 13C11.5254 11.7989 11.563 10.5957 11.6875 9.4C11.6844 8.82044 11.7993 8.24631 12.025 7.7125C12.1162 7.3028 12.3569 6.94181 12.7 6.7C12.9418 6.35691 13.3028 6.11625 13.7125 6.025C14.2463 5.79927 14.8204 5.68445 15.4 5.6875H22.6C23.1796 5.68445 23.7537 5.79927 24.2875 6.025C24.6972 6.11625 25.0582 6.35691 25.3 6.7C25.6431 6.94181 25.8838 7.3028 25.975 7.7125C26.2007 8.24631 26.3156 8.82044 26.3125 9.4C26.437 10.5957 26.4746 11.7989 26.425 13C26.4746 14.2011 26.437 15.4043 26.3125 16.6Z" fill="black"/>
<path d="M19 8.3877C17.7766 8.3877 16.6034 8.87365 15.7384 9.73866C14.8734 10.6037 14.3875 11.7769 14.3875 13.0002C14.3875 14.2235 14.8734 15.3967 15.7384 16.2617C16.6034 17.1267 17.7766 17.6127 19 17.6127C19.6057 17.6127 20.2055 17.4934 20.7651 17.2616C21.3247 17.0298 21.8332 16.69 22.2615 16.2617C22.6898 15.8334 23.0295 15.3249 23.2613 14.7653C23.4931 14.2057 23.6125 13.6059 23.6125 13.0002C23.6125 12.3945 23.4931 11.7947 23.2613 11.2351C23.0295 10.6755 22.6898 10.167 22.2615 9.73866C21.8332 9.31035 21.3247 8.9706 20.7651 8.7388C20.2055 8.507 19.6057 8.3877 19 8.3877ZM19 16.0377C18.3992 16.0377 17.8119 15.8595 17.3124 15.5258C16.8129 15.192 16.4236 14.7176 16.1937 14.1626C15.9638 13.6076 15.9036 12.9968 16.0208 12.4076C16.138 11.8184 16.4273 11.2772 16.8521 10.8524C17.2769 10.4276 17.8181 10.1383 18.4074 10.0211C18.9966 9.90386 19.6073 9.96401 20.1624 10.1939C20.7174 10.4238 21.1918 10.8131 21.5255 11.3127C21.8593 11.8122 22.0375 12.3994 22.0375 13.0002C22.0375 13.8058 21.7174 14.5784 21.1478 15.148C20.5781 15.7177 19.8055 16.0377 19 16.0377Z" fill="black"/>
<path d="M24.85 8.16233C24.8659 8.30443 24.8515 8.44828 24.8078 8.58442C24.7641 8.72056 24.692 8.84589 24.5964 8.95217C24.5007 9.05845 24.3837 9.14327 24.2529 9.20104C24.1221 9.2588 23.9805 9.28821 23.8375 9.28733C23.6854 9.30542 23.5312 9.28877 23.3865 9.23863C23.2418 9.18849 23.1103 9.10616 23.002 8.99786C22.8937 8.88955 22.8114 8.75809 22.7612 8.61336C22.7111 8.46864 22.6944 8.31442 22.7125 8.16233C22.7116 8.01934 22.7411 7.87779 22.7988 7.747C22.8566 7.6162 22.9414 7.49912 23.0477 7.40347C23.154 7.30782 23.2793 7.23576 23.4154 7.19204C23.5516 7.14832 23.6954 7.13394 23.8375 7.14983C24.1061 7.14983 24.3636 7.2565 24.5535 7.44638C24.7434 7.63626 24.85 7.89379 24.85 8.16233Z" fill="black"/>
</svg>
