<svg width="43" height="28" viewBox="0 0 43 28" fill="none" xmlns="http://www.w3.org/2000/svg">
<g clip-path="url(#clip0_2_316)">
<path d="M31.7541 6.2381C32.1285 6.56527 32.3956 6.99656 32.5208 7.47619C32.8506 9.29896 33.011 11.148 32.9999 13C33.011 14.852 32.8506 16.701 32.5208 18.5238C32.4221 19.0142 32.1501 19.4534 31.7541 19.7619C31.4249 20.134 30.9909 20.3994 30.5083 20.5238C28.6874 21 21.4999 21 21.4999 21C21.4999 21 14.3124 21 12.4916 20.5238C11.9981 20.4257 11.5562 20.1555 11.2458 19.7619C10.8497 19.4534 10.5778 19.0142 10.4791 18.5238C10.1492 16.701 9.98883 14.852 9.99993 13C9.98883 11.148 10.1492 9.29896 10.4791 7.47619C10.6042 6.99656 10.8713 6.56527 11.2458 6.2381C11.5562 5.84451 11.9981 5.57426 12.4916 5.47619C14.3124 5 21.4999 5 21.4999 5C21.4999 5 28.6874 5 30.5083 5.47619C30.9909 5.60056 31.4249 5.86597 31.7541 6.2381ZM25.1416 13L19.1999 9.57143V16.4286L25.1416 13Z" fill="black"/>
</g>
<defs>
<clipPath id="clip0_2_316">
<rect width="23" height="16" fill="white" transform="translate(10 5)"/>
</clipPath>
</defs>
</svg>
