<svg width="5" height="10" viewBox="0 0 5 10" fill="none" xmlns="http://www.w3.org/2000/svg">
<path fill-rule="evenodd" clip-rule="evenodd" d="M4.28941 9.08317C4.59565 9.08317 4.83332 8.84379 4.83332 8.53995C4.83332 8.38804 4.7739 8.24993 4.66878 8.14405L1.4693 4.99523L4.66878 1.85562C4.7739 1.74974 4.83332 1.60703 4.83332 1.45972C4.83332 1.15589 4.59565 0.916504 4.28941 0.916504C4.14315 0.916504 4.01517 0.971746 3.91462 1.07302L0.358625 4.57171C0.230646 4.6914 0.166656 4.83871 0.166656 4.99984C0.166656 5.16096 0.230646 5.29907 0.354054 5.42336L3.91005 8.92665C4.01517 9.02793 4.14315 9.08317 4.28941 9.08317Z" fill="#7B8E98"/>
</svg>
