<svg width="16" height="16" viewBox="0 0 16 16" fill="none" xmlns="http://www.w3.org/2000/svg">
<path fill-rule="evenodd" clip-rule="evenodd" d="M12.1108 14.2239C12.357 14.0389 12.411 13.7345 12.2609 13.3048L11.0061 9.58657L14.2121 7.30075C14.5844 7.03814 14.7345 6.75764 14.6384 6.46519C14.5424 6.17275 14.2602 6.02951 13.7979 6.03548L9.86538 6.06532L8.67062 2.32922C8.52652 1.89354 8.31039 1.66675 7.99819 1.66675C7.69199 1.66675 7.47586 1.89354 7.33177 2.32922L6.13701 6.06532L2.2045 6.03548C1.74221 6.02951 1.46003 6.17275 1.36397 6.46519C1.26191 6.75764 1.418 7.03814 1.79024 7.30075L4.99628 9.58657L3.74148 13.3048C3.59139 13.7345 3.64542 14.0389 3.89158 14.2239C4.13773 14.4149 4.44993 14.3492 4.82217 14.0806L7.99819 11.759L11.1802 14.0806C11.5524 14.3492 11.8586 14.4149 12.1108 14.2239Z" fill="#FEBA0C"/>
</svg>
