<svg width="21" height="20" viewBox="0 0 21 20" fill="none" xmlns="http://www.w3.org/2000/svg">
<path d="M7.00744 14.5681H18.6224C18.8506 14.5688 19.0693 14.6631 19.2306 14.8306C19.3918 14.9981 19.4831 15.225 19.4843 15.4619C19.4843 15.7 19.3931 15.9281 19.2312 16.0963C19.0693 16.2644 18.8493 16.3588 18.6199 16.3588H6.57806C6.27306 16.3581 5.97931 16.2425 5.75119 16.0325C5.52306 15.8225 5.37681 15.5331 5.34056 15.2194C4.55994 8.49938 3.72931 3.79501 3.72119 3.74626L3.71431 3.69876C3.63494 3.03876 3.58556 2.43376 2.93119 2.09001C2.52681 1.87938 1.81681 1.80001 1.59994 1.78938C1.37119 1.77813 1.15556 1.67313 1.00119 1.49751C0.84681 1.32188 0.766185 1.08938 0.77681 0.851884C0.78806 0.614384 0.889935 0.391259 1.05994 0.231259C1.22994 0.0712589 1.45369 -0.011241 1.68244 8.95758e-06C1.80619 0.00625896 2.91056 0.0706339 3.71369 0.492509C4.87869 1.10438 5.27056 2.20438 5.42869 3.45376L5.42994 3.46126C5.50119 3.88188 6.26806 8.29938 7.00744 14.5663V14.5681ZM20.4631 2.56938C20.6906 2.77688 20.8381 3.06376 20.8768 3.37563C20.8768 5.11688 20.8624 6.14813 20.6387 7.69126C20.4062 9.28938 20.2068 10.4244 19.6549 12.47C19.5543 12.6925 19.3943 12.8813 19.1943 13.0131C18.9943 13.145 18.7624 13.215 18.5249 13.2156L8.74494 13.6444C8.51556 13.6444 8.29556 13.55 8.13369 13.3819C7.97181 13.2138 7.88056 12.9856 7.88056 12.7475C7.88056 12.5094 7.97181 12.2813 8.13369 12.1131C8.29556 11.945 8.51556 11.8506 8.74494 11.8506L18.2143 11.4219C18.6068 9.88688 18.7174 9.01438 18.9093 7.69188C19.0887 6.45813 19.1174 5.56626 19.2087 4.04063H7.59119C7.36181 4.04063 7.14181 3.94626 6.97994 3.77813C6.81806 3.61001 6.72681 3.38188 6.72681 3.14376C6.72681 2.90563 6.81806 2.67751 6.97994 2.50938C7.14181 2.34126 7.36181 2.24688 7.59119 2.24688H19.6393C19.9424 2.24751 20.2349 2.36188 20.4624 2.57001L20.4631 2.56938ZM7.74369 19.9206C8.47181 19.9206 9.06181 19.3081 9.06181 18.5525C9.06181 17.7969 8.47181 17.1844 7.74369 17.1844C7.01556 17.1844 6.42556 17.7969 6.42556 18.5525C6.42556 19.3081 7.01556 19.9206 7.74369 19.9206ZM18.7668 18.5525C18.7668 19.3081 18.1768 19.9206 17.4487 19.9206C16.7206 19.9206 16.1306 19.3081 16.1306 18.5525C16.1306 17.7969 16.7206 17.1844 17.4487 17.1844C18.1768 17.1844 18.7668 17.7969 18.7668 18.5525Z" fill="black"/>
</svg>
