<svg width="25" height="20" viewBox="0 0 25 20" fill="none" xmlns="http://www.w3.org/2000/svg">
<path d="M13.7756 19.5659L23.1162 10.5652C23.7143 9.99149 24.1887 9.30962 24.5112 8.55837C24.8337 7.80712 24.9993 7.00212 24.9968 6.18899C24.9993 5.37587 24.8343 4.57087 24.5112 3.81962C24.1881 3.06837 23.7143 2.38649 23.1162 1.81274C22.5212 1.23649 21.8131 0.778991 21.0331 0.467741C20.2531 0.156491 19.4175 -0.00288364 18.5731 -0.00100864C17.7287 -0.00350864 16.8925 0.155866 16.1131 0.467116C15.3337 0.778366 14.625 1.23587 14.03 1.81274L12.6856 3.10837L11.34 1.81274C10.1343 0.653366 8.50058 0.00211636 6.79683 0.00211636C5.09308 0.00211636 3.45933 0.653366 2.25432 1.81274C1.6562 2.38649 1.18182 3.06837 0.8587 3.81962C0.535575 4.57087 0.3712 5.37587 0.373075 6.18899C0.370575 7.00212 0.5362 7.80712 0.8587 8.55837C1.1812 9.30962 1.6562 9.99149 2.25495 10.5646L11.5975 19.5652C11.74 19.7027 11.91 19.8121 12.0968 19.8865C12.2837 19.9609 12.4837 19.999 12.6862 19.9984C12.8881 19.999 13.0887 19.9609 13.2756 19.8865C13.4625 19.8121 13.6325 19.7027 13.775 19.5646L13.7756 19.5659ZM6.79745 2.08212H6.90558C7.4287 2.09337 7.94495 2.19837 8.42933 2.39024C8.9462 2.59587 9.41683 2.89774 9.81245 3.27899L12.6862 6.04774L15.5593 3.27899C15.9543 2.89712 16.4243 2.59399 16.9412 2.38837C17.4581 2.18274 18.0131 2.07774 18.5725 2.07962H18.5737C19.1331 2.07774 19.6875 2.18274 20.2043 2.38899C20.7212 2.59524 21.1912 2.89774 21.5862 3.27962L21.5868 3.28024C21.9831 3.66087 22.2975 4.11399 22.5112 4.61212C22.725 5.11024 22.8343 5.64524 22.8318 6.18462V6.18587C22.8337 6.72524 22.725 7.25962 22.5112 7.75837C22.2975 8.25712 21.9831 8.70962 21.5868 9.09024L12.6868 17.6671L3.7837 9.09274C3.38745 8.71212 3.07308 8.25962 2.85933 7.76087C2.64558 7.26212 2.5362 6.72774 2.53807 6.18837V6.18712C2.5362 5.64774 2.64495 5.11274 2.8587 4.61462C3.07245 4.11649 3.38683 3.66337 3.78308 3.28274C4.1787 2.90149 4.6487 2.59899 5.16558 2.39337C5.68245 2.18774 6.23682 2.08212 6.7962 2.08337L6.79745 2.08212Z" fill="black"/>
</svg>
