<svg width="21" height="20" viewBox="0 0 21 20" fill="none" xmlns="http://www.w3.org/2000/svg">
<path d="M14.7919 0H6.70811C3.42279 0 0.75 2.67279 0.75 5.95811V14.0419C0.75 17.3272 3.42279 20 6.70811 20H14.7919C18.0772 20 20.75 17.3272 20.75 14.0419V5.95811C20.75 2.67279 18.0772 0 14.7919 0ZM18.738 14.0419C18.738 16.2213 16.9713 17.988 14.7919 17.988H6.70811C4.52875 17.988 2.762 16.2213 2.762 14.0419V5.95811C2.762 3.77871 4.52875 2.012 6.70811 2.012H14.7919C16.9713 2.012 18.738 3.77871 18.738 5.95811V14.0419Z" fill="url(#paint0_linear_585_93433)"/>
<path d="M10.7499 4.8273C7.89762 4.8273 5.57715 7.14777 5.57715 9.99998C5.57715 12.8522 7.89762 15.1727 10.7499 15.1727C13.6021 15.1727 15.9226 12.8522 15.9226 9.99998C15.9226 7.14774 13.6021 4.8273 10.7499 4.8273ZM10.7499 13.1607C9.00423 13.1607 7.58915 11.7456 7.58915 10C7.58915 8.25438 9.00427 6.8393 10.7499 6.8393C12.4955 6.8393 13.9106 8.25438 13.9106 10C13.9106 11.7456 12.4955 13.1607 10.7499 13.1607Z" fill="url(#paint1_linear_585_93433)"/>
<path d="M15.9328 6.10562C16.6174 6.10562 17.1723 5.55069 17.1723 4.86614C17.1723 4.18159 16.6174 3.62665 15.9328 3.62665C15.2483 3.62665 14.6934 4.18159 14.6934 4.86614C14.6934 5.55069 15.2483 6.10562 15.9328 6.10562Z" fill="url(#paint2_linear_585_93433)"/>
<defs>
<linearGradient id="paint0_linear_585_93433" x1="10.75" y1="19.9418" x2="10.75" y2="0.155343" gradientUnits="userSpaceOnUse">
<stop stop-color="#E09B3D"/>
<stop offset="0.3" stop-color="#C74C4D"/>
<stop offset="0.6" stop-color="#C21975"/>
<stop offset="1" stop-color="#7024C4"/>
</linearGradient>
<linearGradient id="paint1_linear_585_93433" x1="10.7499" y1="19.9418" x2="10.7499" y2="0.155357" gradientUnits="userSpaceOnUse">
<stop stop-color="#E09B3D"/>
<stop offset="0.3" stop-color="#C74C4D"/>
<stop offset="0.6" stop-color="#C21975"/>
<stop offset="1" stop-color="#7024C4"/>
</linearGradient>
<linearGradient id="paint2_linear_585_93433" x1="15.9328" y1="19.9418" x2="15.9328" y2="0.155356" gradientUnits="userSpaceOnUse">
<stop stop-color="#E09B3D"/>
<stop offset="0.3" stop-color="#C74C4D"/>
<stop offset="0.6" stop-color="#C21975"/>
<stop offset="1" stop-color="#7024C4"/>
</linearGradient>
</defs>
</svg>
