<svg width="20" height="20" viewBox="0 0 20 20" fill="none" xmlns="http://www.w3.org/2000/svg">
<path d="M17.9207 20.0004H1.35821C1.17071 20.0004 0.985707 19.9635 0.813832 19.8916C0.641957 19.8198 0.486332 19.7148 0.357582 19.5823C0.235082 19.4554 0.140082 19.3048 0.0788318 19.141C0.0175818 18.9773 -0.00804322 18.8029 0.00258178 18.6285C0.0725818 17.5141 0.381957 16.5598 0.921957 15.7991C1.62071 14.8123 2.61571 14.2679 3.49258 13.7879C4.32133 13.3341 5.06133 12.9166 5.72821 12.3966C6.84571 11.5241 6.40883 10.971 6.19821 10.7054C5.20696 9.45163 4.64508 8.15726 4.47946 6.74788C4.32321 5.42726 4.51821 4.02101 5.01133 2.89038C5.80883 1.06976 7.48696 0.0160071 9.61446 0.00100708H9.71696C11.8145 0.0166321 13.5282 1.09851 14.3113 2.89351C14.8013 4.02351 14.9945 5.42788 14.8432 6.74663C14.6795 8.15601 14.122 9.45038 13.1407 10.7029C12.9476 10.9491 12.4963 11.526 13.6051 12.3998C14.2663 12.9173 14.9982 13.3379 15.8207 13.791C16.6432 14.2441 17.682 14.816 18.3707 15.8041C18.9026 16.5654 19.2107 17.5173 19.2807 18.6298C19.2913 18.8041 19.2657 18.9785 19.2045 19.1423C19.1432 19.306 19.0488 19.4566 18.9263 19.5841C18.797 19.7166 18.6407 19.8223 18.4682 19.8935C18.2957 19.9648 18.1095 20.0023 17.9213 20.001L17.9207 20.0004ZM1.82196 18.276H17.4601C17.3938 17.7404 17.2032 17.2266 16.902 16.7735C16.442 16.1166 15.6788 15.696 14.942 15.2891C14.0851 14.816 13.252 14.341 12.4876 13.7373C10.9807 12.5485 10.6876 10.9835 11.7282 9.65538C12.5107 8.65726 12.952 7.64163 13.0801 6.55226C13.1988 5.53351 13.0488 4.41601 12.6788 3.56351C11.9907 1.97788 10.5195 1.73101 9.70383 1.72476H9.62946C8.81196 1.73101 7.33883 1.97851 6.64321 3.56601C6.27008 4.41788 6.11946 5.53351 6.23883 6.55163C6.36633 7.64226 6.81258 8.65663 7.60196 9.65476C8.65383 10.986 8.36071 12.5523 6.83633 13.7429C6.06508 14.346 5.22508 14.8185 4.36071 15.2948C3.61633 15.7016 2.84571 16.1229 2.38071 16.781C2.07946 17.2316 1.88821 17.7429 1.82258 18.2766L1.82196 18.276Z" fill="black"/>
</svg>
