<svg width="20" height="20" viewBox="0 0 20 20" fill="none" xmlns="http://www.w3.org/2000/svg">
<path d="M19.6937 18.2177L14.863 13.387C17.3884 10.1324 17.1604 5.41834 14.173 2.43101C12.6044 0.862343 10.5197 -0.000976562 8.3017 -0.000976562C6.0837 -0.000976562 3.99903 0.862343 2.43103 2.43101C0.862364 3.99901 -0.000976562 6.08435 -0.000976562 8.30235C-0.000976562 10.5203 0.862364 12.6057 2.43103 14.1737C3.9997 15.7417 6.08435 16.6057 8.30235 16.6057C10.1684 16.6057 11.9384 15.9923 13.3884 14.8643L18.2184 19.6944C18.4217 19.8984 18.689 19.9997 18.9564 19.9997C19.223 19.9997 19.4904 19.8977 19.6944 19.6944C20.1017 19.2864 20.1017 18.6257 19.6937 18.2177ZM3.9077 12.6977C2.7337 11.5237 2.08702 9.96302 2.08702 8.30302C2.08702 6.64235 2.7337 5.08234 3.90837 3.90767C5.08237 2.73367 6.64302 2.08702 8.30302 2.08702C9.96302 2.08702 11.5237 2.73367 12.6984 3.90767C15.1217 6.33034 15.1217 10.2737 12.6984 12.697C11.5244 13.871 9.96302 14.5177 8.30302 14.5177C6.64235 14.5177 5.0817 13.871 3.9077 12.6977Z" fill="black"/>
</svg>
