<svg width="24" height="24" viewBox="0 0 24 24" fill="none" xmlns="http://www.w3.org/2000/svg">
<path fill-rule="evenodd" clip-rule="evenodd" d="M24 0H0V24H24V0ZM17.3396 6.39162C18.0596 6.93466 18.9561 7.25657 19.9278 7.25657C19.9284 7.25657 19.9352 7.25657 19.9358 7.25605V8.0038V10.0193C18.9854 10.0197 18.0619 9.83345 17.191 9.46599C16.631 9.22955 16.1092 8.92494 15.632 8.55682L15.6463 14.7608C15.6403 16.1578 15.0876 17.4703 14.0874 18.459C13.2733 19.2637 12.2417 19.7755 11.1237 19.9411C10.861 19.98 10.5936 20 10.3233 20C9.12645 20 7.99015 19.6123 7.06069 18.8969C6.88577 18.7623 6.7185 18.6163 6.55921 18.459C5.47512 17.3875 4.91611 15.9353 5.01022 14.4076C5.08205 13.2447 5.54761 12.1357 6.32377 11.2664C7.35067 10.1161 8.78726 9.47763 10.3233 9.47763C10.5936 9.47763 10.861 9.49792 11.1237 9.53683V10.2821V12.3551C10.8746 12.273 10.6086 12.2278 10.3316 12.2278C8.92826 12.2278 7.79295 13.3727 7.8139 14.7771C7.8272 15.6756 8.31804 16.4611 9.04199 16.894C9.38218 17.0976 9.77359 17.2236 10.1913 17.2465C10.5185 17.2645 10.8327 17.2189 11.1237 17.1228C12.1263 16.7916 12.8496 15.8498 12.8496 14.7391L12.8529 10.5847V3H15.6287C15.6314 3.27501 15.6593 3.54338 15.7112 3.80343C15.9207 4.85593 16.5139 5.7691 17.3396 6.39162ZM19.9358 7.2559C19.9359 7.25596 19.9359 7.25601 19.9358 7.25605V7.2559Z" fill="white"/>
</svg>
