<svg width="621" height="1002" viewBox="0 0 621 1002" fill="none" xmlns="http://www.w3.org/2000/svg">
<g clip-path="url(#clip0_27_739)">
<rect width="1920" height="5239" transform="translate(-662 -2533)" fill="white"/>
<g filter="url(#filter0_d_27_739)">
<mask id="mask0_27_739" style="mask-type:alpha" maskUnits="userSpaceOnUse" x="0" y="0" width="621" height="1002">
<rect x="0.477539" width="620" height="1002" fill="#FCFCFF"/>
</mask>
<g mask="url(#mask0_27_739)">
<rect x="-14.5225" width="650" height="1033" fill="white"/>
<path d="M-36.0225 230.5C-163.868 115.82 10.2722 -85.2736 179.893 -149.113C285.274 -188.774 536.477 -114.5 452.478 5.50018C429.351 38.5386 375.478 84.8799 271.478 48.0005C167.478 11.1211 121.977 55.0009 110.978 154.5C99.9777 254 0.132415 262.932 -36.0225 230.5Z" fill="url(#paint0_linear_27_739)"/>
<path opacity="0.8" d="M260.978 -135C442.113 -141.033 411.477 88.4999 281.477 67.9999C151.477 47.4999 124.343 102 89.9775 168C55.6115 234 -21.6867 210.319 -45.5224 168C-129.806 18.3604 79.8417 -128.968 260.978 -135Z" fill="url(#paint1_linear_27_739)"/>
</g>
</g>
</g>
<defs>
<filter id="filter0_d_27_739" x="-26.5225" y="-14" width="674" height="1056" filterUnits="userSpaceOnUse" color-interpolation-filters="sRGB">
<feFlood flood-opacity="0" result="BackgroundImageFix"/>
<feColorMatrix in="SourceAlpha" type="matrix" values="0 0 0 0 0 0 0 0 0 0 0 0 0 0 0 0 0 0 127 0" result="hardAlpha"/>
<feOffset dy="13"/>
<feGaussianBlur stdDeviation="13.5"/>
<feColorMatrix type="matrix" values="0 0 0 0 0 0 0 0 0 0 0 0 0 0 0 0 0 0 0.1 0"/>
<feBlend mode="normal" in2="BackgroundImageFix" result="effect1_dropShadow_27_739"/>
<feBlend mode="normal" in="SourceGraphic" in2="effect1_dropShadow_27_739" result="shape"/>
</filter>
<linearGradient id="paint0_linear_27_739" x1="-51.7517" y1="-5.18838" x2="137.048" y2="133.746" gradientUnits="userSpaceOnUse">
<stop stop-color="#7ABFFF"/>
<stop offset="1" stop-color="#C184FF"/>
</linearGradient>
<linearGradient id="paint1_linear_27_739" x1="-10.0225" y1="-36" x2="114.529" y2="123.646" gradientUnits="userSpaceOnUse">
<stop stop-color="#A54AFF"/>
<stop offset="1" stop-color="#55D6FF"/>
</linearGradient>
<clipPath id="clip0_27_739">
<rect width="1920" height="5239" fill="white" transform="translate(-662 -2533)"/>
</clipPath>
</defs>
</svg>
